P2
# image reduced by 2
12 4
15
3 7 3 2 5 2 1 3 1 0 1 0 
7 7 7 0 5 5 0 3 3 0 1 1 
0 0 7 2 5 5 1 3 3 0 0 1 
0 0 0 0 0 0 0 0 0 0 0 0 

