P2
# inversion of the matrix
24 7
45
0 0 0 0 3 3 0 0 0 0 7 7 0 0 0 0 11 11 0 0 0 0 15 15 
0 0 3 0 3 3 0 0 7 0 7 7 0 0 11 0 11 11 0 0 15 0 15 30 
0 0 3 3 6 3 0 0 7 7 14 7 0 0 11 11 22 11 0 0 15 0 30 45 
0 0 6 3 3 0 0 0 14 7 7 0 0 0 22 11 11 0 0 0 30 0 15 30 
0 0 6 3 3 0 0 0 7 7 14 7 0 0 11 11 22 11 0 0 30 0 15 15 
0 0 6 0 0 0 0 0 7 0 7 7 0 0 11 0 11 11 0 0 30 0 0 0 
0 0 3 0 0 0 0 0 0 0 7 7 0 0 0 0 11 11 0 0 15 0 0 0 

