P2
# inversion of the matrix
24 7
60
0 0 0 0 3 3 0 0 0 0 7 7 0 0 0 0 11 11 0 0 0 0 15 15 
0 0 3 0 6 6 0 0 7 0 14 14 0 0 11 0 22 22 0 0 15 0 30 45 
0 0 6 3 6 3 0 0 14 7 14 7 0 0 22 11 22 11 0 0 30 0 30 60 
0 0 6 6 6 0 0 0 14 14 14 0 0 0 22 22 22 0 0 0 30 0 30 45 
0 0 9 3 3 0 0 0 14 7 14 7 0 0 22 11 22 11 0 0 45 0 15 15 
0 0 9 0 0 0 0 0 7 0 14 14 0 0 11 0 22 22 0 0 45 0 0 0 
0 0 3 0 0 0 0 0 0 0 7 7 0 0 0 0 11 11 0 0 15 0 0 0 

