P2
# inversion of the matrix
24 7
60
0 0 0 0 0 0 0 0 0 0 0 0 0 0 0 0 0 0 0 0 0 0 0 0 
0 0 0 0 0 0 0 0 0 0 0 0 0 0 0 0 0 0 0 0 0 0 0 0 
0 0 0 3 6 3 0 0 0 7 14 7 0 0 0 11 22 11 0 0 0 0 0 0 
0 0 0 0 0 0 0 0 0 0 0 0 0 0 0 0 0 0 0 0 0 15 30 15 
0 3 9 9 3 0 0 0 0 0 0 0 0 0 0 0 0 0 0 15 45 60 45 15 
3 6 3 0 0 0 7 14 7 0 0 0 11 22 11 0 0 0 15 30 15 0 0 0 
3 6 3 0 0 0 7 21 28 28 21 7 11 33 44 44 33 11 15 30 15 0 0 0 

