P2
# inversion of the matrix
24 7
45
0 0 0 0 0 0 0 0 0 0 0 0 0 0 0 0 0 0 0 0 0 0 0 0 
0 0 0 0 0 0 0 0 0 0 0 0 0 0 0 0 0 0 0 0 0 0 0 0 
0 0 0 3 3 3 0 0 0 7 7 7 0 0 0 11 11 11 0 0 0 0 0 0 
0 0 0 0 0 0 0 0 0 0 0 0 0 0 0 0 0 0 0 0 0 15 15 15 
0 3 6 6 3 0 0 0 0 0 0 0 0 0 0 0 0 0 0 15 30 45 30 15 
3 3 3 0 0 0 7 7 7 0 0 0 11 11 11 0 0 0 15 15 15 0 0 0 
3 3 3 0 0 0 7 14 21 21 14 7 11 22 33 33 22 11 15 15 15 0 0 0 

