P2
# conversion de PPM à PGM
4 4
10
0 0 0 10 
0 7 0 0 
0 0 7 0 
10 0 0 0 

