P2
# PGM G File
4 4
15
0 0 0 0 
0 15 0 0 
0 0 15 0 
0 0 0 0 

