P2
# PGM R File
4 4
15
0 0 0 15 
0 0 0 0 
0 0 0 0 
15 0 0 0 

